<svg t="1621495078816" class="icon" viewBox="0 0 1024 1024" version="1.1" xmlns="http://www.w3.org/2000/svg" p-id="787" width="16" height="16"><path d="M938.496 104.448c-5.12-15.36-22.016-24.064-37.376-18.944l-793.6 264.192c-8.704 2.048-16.384 7.68-20.48 15.872-7.168 14.848-1.024 32.768 13.824 39.936L445.44 578.56l172.032 344.576v0.512c0.512 0.512 0.512 1.024 1.024 2.048 0.512 0.512 0.512 1.024 1.024 1.536 0.512 0.512 0.512 1.024 1.024 1.536l0.512 0.512c0.512 0.512 1.024 1.024 1.024 1.536l1.024 1.024s0.512 0 0.512 0.512c0.512 0.512 1.024 1.024 1.536 1.024 0.512 0.512 1.024 1.024 1.536 1.024h0.512c0.512 0.512 1.024 0.512 1.536 1.024 0.512 0.512 1.024 0.512 2.048 1.024l2.048 1.024c1.024 0.512 2.56 1.024 3.584 1.536 1.536 0.512 2.56 0.512 4.096 1.024h10.752c0.512 0 1.536-0.512 2.048-0.512h0.512c0.512 0 1.024-0.512 1.536-0.512h0.512c1.536-0.512 3.072-1.024 4.608-2.048 1.536-0.512 2.56-1.536 3.584-2.56 4.608-3.584 8.192-8.192 9.728-13.824l265.216-795.648c1.536-7.168 2.048-13.824-0.512-20.48z m-299.008 727.552l-144.896-289.28c0-0.512-0.512-0.512-0.512-1.024-3.584-7.168-9.728-12.288-16.896-14.336l-285.184-142.848 671.232-223.744-223.744 671.232z" fill="#333333" p-id="788"></path><path d="M579.584 422.912l-118.784 103.424c-12.288 10.752-13.312 29.184-3.072 41.472 10.752 12.288 29.184 13.312 41.472 3.072l118.784-103.424c12.288-10.752 13.312-29.184 3.072-41.472-10.752-12.8-29.184-13.824-41.472-3.072z" fill="#333333" p-id="789"></path></svg>