<svg t="1621238281632" class="icon" viewBox="0 0 1024 1024" version="1.1" xmlns="http://www.w3.org/2000/svg" p-id="1247" width="16" height="16"><path d="M579.2 60.8c25.6 99.2 118.4 172.8 230.4 172.8 19.2 0 41.6-3.2 64-9.6L944 342.4c-44.8 41.6-70.4 102.4-70.4 166.4s25.6 121.6 70.4 166.4L873.6 800c-19.2-6.4-41.6-9.6-64-9.6-112 0-204.8 73.6-230.4 172.8H438.4C416 864 320 790.4 211.2 790.4c-19.2 0-41.6 3.2-64 9.6L76.8 681.6c44.8-44.8 70.4-105.6 70.4-169.6s-25.6-121.6-70.4-166.4L147.2 224c22.4 6.4 41.6 9.6 64 9.6C320 233.6 416 160 441.6 60.8h137.6zM633.6 0H390.4c0 96-80 172.8-179.2 172.8-32 0-64-9.6-89.6-22.4L0 361.6c54.4 32 89.6 86.4 89.6 150.4S54.4 633.6 0 662.4l121.6 211.2c25.6-12.8 57.6-22.4 89.6-22.4 99.2 0 179.2 76.8 179.2 172.8h243.2c0-96 80-172.8 179.2-172.8 32 0 64 9.6 89.6 22.4L1024 662.4c-54.4-32-89.6-86.4-89.6-150.4s38.4-121.6 89.6-150.4L902.4 150.4c-25.6 12.8-57.6 22.4-89.6 22.4C713.6 172.8 633.6 96 633.6 0zM512 659.2c-83.2 0-150.4-64-150.4-147.2 0-80 67.2-147.2 150.4-147.2s150.4 64 150.4 147.2c0 80-67.2 147.2-150.4 147.2z m0-236.8c-51.2 0-89.6 38.4-89.6 89.6s38.4 89.6 89.6 89.6 89.6-38.4 89.6-89.6-41.6-89.6-89.6-89.6z" p-id="1248" fill="#333333"></path></svg>