<svg t="1617883536199" class="icon" viewBox="0 0 1024 1024" version="1.1" xmlns="http://www.w3.org/2000/svg" p-id="3494" width="12" height="12"><path d="M512.002662 664.3712c-5.8368 0-11.5712-1.6384-16.7936-4.8128L15.260262 359.8336C5.737062 353.9968 0.002662 343.4496 0.002662 332.1856s5.7344-21.8112 15.2576-27.648L495.209062 4.8128c10.24-6.4512 23.2448-6.4512 33.4848 0L1008.642662 304.5376c9.5232 5.9392 15.2576 16.384 15.2576 27.648s-5.7344 21.8112-15.2576 27.648L528.796262 659.5584c-5.2224 3.1744-10.9568 4.8128-16.7936 4.8128zM93.084262 332.1856L512.002662 593.7152l418.9184-261.5296L512.002662 70.656 93.084262 332.1856z" p-id="3495" fill="#9999993"></path><path d="M512.002662 844.1856c-5.8368 0-11.5712-1.6384-16.7936-4.8128L15.260262 539.7504C0.207462 530.3296-4.502938 510.3616 4.713062 495.0016c9.216-15.2576 28.9792-20.0704 44.032-10.6496L512.002662 773.5296 975.260262 484.352c15.0528-9.4208 34.7136-4.608 44.032 10.6496 9.216 15.2576 4.5056 35.328-10.5472 44.7488L528.796262 839.3728c-5.2224 3.1744-10.9568 4.8128-16.7936 4.8128z" p-id="3496" fill="#9999993"></path><path d="M512.002662 1024c-5.8368 0-11.5712-1.6384-16.7936-4.8128L15.260262 719.4624C0.207462 710.0416-4.502938 690.0736 4.713062 674.7136c9.216-15.2576 28.9792-20.0704 44.032-10.6496L512.002662 953.344l463.2576-289.1776c15.0528-9.4208 34.7136-4.608 44.032 10.6496 9.216 15.2576 4.5056 35.328-10.5472 44.7488L528.796262 1019.1872c-5.2224 3.1744-10.9568 4.8128-16.7936 4.8128z" p-id="3497" fill="#999999"></path></svg>