<svg t="1635214011892" class="icon" viewBox="0 0 1024 1024" version="1.1" xmlns="http://www.w3.org/2000/svg" p-id="4078" width="16" height="16"><path d="M716.1 192.9L513 78.5 309.9 192.9v229.5L513 536.8l203.1-114.4V192.9z m-30.5 211.7L513 501.9l-172.6-97.3V210.7L513 113.4l172.6 97.3v193.9z m-599.5 155v229.5l203.1 114.4 203.1-114.4V559.6L289.2 445.1 86.1 559.6z m375.7 211.7l-172.6 97.3-172.6-97.3V577.4l172.6-97.3 172.6 97.3v193.9z m275-326.2l-203 114.5v229.5l203.1 114.4 203-114.4V559.6L736.8 445.1z m172.7 326.2l-172.6 97.3-172.7-97.3V577.4l172.7-97.3 172.6 97.3v193.9zM125.4 594.6l160.2 81.9 160.2-81.9-160.2-92.1-160.2 92.1z m160.2 60.6l-120.3-61.5 120.3-69.2 120.3 69.2-120.3 61.5zM723 676.6l178.8-81.4-161-92.6-159.2 91.6L723 676.6z m137.2-83.4l-136.1 62-104.6-61 121.3-69.8 119.4 68.8zM513.1 307.9L673.3 226l-160.2-92.1L353 226l160.1 81.9zM633.5 225l-120.3 61.5L392.8 225l120.3-69.2L633.5 225z" fill="#333333" p-id="4079"></path></svg>