<svg t="1614230554044" class="icon" viewBox="0 0 1024 1024" version="1.1" xmlns="http://www.w3.org/2000/svg" p-id="1145" width="32" height="32"><path d="M559.2 66.3C274.5 37.1 36.9 274.7 66.1 559.4c20.3 197.8 200.6 378.1 398.4 398.4C749.2 987 986.8 749.4 957.6 464.7 937.3 266.9 757 86.6 559.2 66.3zM832 298.6l42.7 85.4c-57.2-10.8-73-10.3-128.1 0-32.6 8.6-49.6 31.9-57.6 47.9-4.1 8.2-6.1 17.3-5.7 26.5 1.1 27.2 0 99.9-43.4 117.7-19.2 7.9-42.7-19.1-42.7-42.7 3-134.5 63.8-160.8 80.4-169.4 17.4-9 69-44 69-44 37.4-19 85.4-21.4 85.4-21.4zM319.8 191.9l26.7 26.7c7.1 7.1 5.3 19.1-3.6 23.8-24.7 13.2-68.4 47.2-104.7 132.4-2.4 5.5-7.8 9.1-13.8 9.1h-54c0 0.1 3.6-112.6 149.4-192z m-4.4 648.9l-95.5-80c10.8-21.6 33.5-36.1 59.5-35.3 33.3 1.1 60.5 28.1 61.8 61.4 0.7 22.1-9.6 41.8-25.8 53.9z m196.4 55.4c-48.1 0-93.9-9.2-136.3-25.3 18.3-22.2 29.6-50.4 29.6-81.4 0-70.7-57.3-128.1-128.1-128.1-38.6 0-73.1 17.3-96.6 44.3-33.4-56.9-52.8-123-52.8-193.7 0-16 1.3-31.7 3.2-47.3L275 450.3c13.1-1.3 23.8-10.9 26.4-23.8 18.2-89 98.2-145.4 148.1-172.6 18.6-10.1 21.1-35.8 4.9-49.4l-66.9-55.7c39-13.4 80.7-20.9 124.3-20.9 104.8 0 199.7 42.1 269 110.1l-93 37.2S469.1 387.5 533.2 554.7c21.5 50.2 60.1 81 95.2 81 77.5 0 121.9-69 118.2-166.4 14.5-14.9 19-14.3 42.7-21.3 49.7-8.3 66 6.7 104.1 20.3 1.6 14.4 2.7 28.9 2.7 43.7C896 724.2 724 896.2 511.8 896.2z" fill="#0E0E0E" p-id="1146"></path></svg>